<mxfile host="65bd71144e">
    <diagram id="5Vkr3zXRoBJZFAsdISud" name="Page-1">
        <mxGraphModel dx="620" dy="438" grid="1" gridSize="10" guides="1" tooltips="1" connect="1" arrows="1" fold="1" page="1" pageScale="1" pageWidth="850" pageHeight="1100" math="0" shadow="0">
            <root>
                <mxCell id="0"/>
                <mxCell id="1" parent="0"/>
                <mxCell id="5" value="My Computer - IP xx.xx.xx.xx&lt;br&gt;(authorised port 22)" style="verticalLabelPosition=bottom;html=1;verticalAlign=top;align=center;strokeColor=none;fillColor=#00BEF2;shape=mxgraph.azure.computer;pointerEvents=1;" vertex="1" parent="1">
                    <mxGeometry x="680" y="30" width="50" height="45" as="geometry"/>
                </mxCell>
                <mxCell id="6" value="Other computer&lt;br&gt;(not authorized port 22)" style="verticalLabelPosition=bottom;html=1;verticalAlign=top;align=center;strokeColor=none;fillColor=#00BEF2;shape=mxgraph.azure.computer;pointerEvents=1;" vertex="1" parent="1">
                    <mxGeometry x="680" y="120" width="50" height="45" as="geometry"/>
                </mxCell>
                <mxCell id="7" value="" style="shape=flexArrow;endArrow=classic;html=1;exitX=0.011;exitY=0.381;exitDx=0;exitDy=0;exitPerimeter=0;fillColor=#60a917;strokeColor=#2D7600;" edge="1" parent="1" source="5">
                    <mxGeometry width="50" height="50" relative="1" as="geometry">
                        <mxPoint x="570" y="100" as="sourcePoint"/>
                        <mxPoint x="287.90999999999997" y="147.15398628246044" as="targetPoint"/>
                    </mxGeometry>
                </mxCell>
                <mxCell id="4" value="Security group 1&#10;&#10;Inbound&#10;Filter IP / Port with Rules" style="fillColor=#e3c800;strokeColor=#B09500;verticalAlign=top;fontStyle=0;fontColor=#000000;" vertex="1" parent="1">
                    <mxGeometry x="310" y="40" width="180" height="130" as="geometry"/>
                </mxCell>
                <mxCell id="8" value="" style="shape=flexArrow;endArrow=classic;html=1;fillColor=#a20025;strokeColor=#6F0000;" edge="1" parent="1" source="6" target="4">
                    <mxGeometry width="50" height="50" relative="1" as="geometry">
                        <mxPoint x="520" y="190" as="sourcePoint"/>
                        <mxPoint x="570" y="140" as="targetPoint"/>
                        <Array as="points">
                            <mxPoint x="590" y="130"/>
                        </Array>
                    </mxGeometry>
                </mxCell>
                <mxCell id="10" value="Get timeout" style="edgeLabel;html=1;align=center;verticalAlign=middle;resizable=0;points=[];" vertex="1" connectable="0" parent="8">
                    <mxGeometry x="0.0062" y="-2" relative="1" as="geometry">
                        <mxPoint as="offset"/>
                    </mxGeometry>
                </mxCell>
                <mxCell id="11" value="www&lt;br&gt;Any IP - Any Port" style="sketch=0;pointerEvents=1;shadow=0;dashed=0;html=1;strokeColor=none;fillColor=#505050;labelPosition=center;verticalLabelPosition=bottom;verticalAlign=top;outlineConnect=0;align=center;shape=mxgraph.office.concepts.website;" vertex="1" parent="1">
                    <mxGeometry x="660" y="250" width="90" height="60" as="geometry"/>
                </mxCell>
                <mxCell id="12" value="" style="shape=flexArrow;endArrow=classic;html=1;fillColor=#60a917;strokeColor=#2D7600;" edge="1" parent="1" target="11">
                    <mxGeometry width="50" height="50" relative="1" as="geometry">
                        <mxPoint x="287.90999999999997" y="203.61618547921876" as="sourcePoint"/>
                        <mxPoint x="279.99999999999994" y="320.00398628246046" as="targetPoint"/>
                    </mxGeometry>
                </mxCell>
                <mxCell id="9" value="Security group 1&#10;&#10;Outbound&#10;Filter IP / Port with Rules" style="fillColor=#e3c800;strokeColor=#B09500;verticalAlign=top;fontStyle=0;fontColor=#000000;" vertex="1" parent="1">
                    <mxGeometry x="310" y="190" width="180" height="130" as="geometry"/>
                </mxCell>
                <mxCell id="13" value="&lt;span style=&quot;&quot;&gt;EC2 Instance&lt;/span&gt;&lt;br style=&quot;&quot;&gt;&lt;span style=&quot;&quot;&gt;IP xx.xx.xx.xx&lt;/span&gt;" style="rounded=0;whiteSpace=wrap;html=1;" vertex="1" parent="1">
                    <mxGeometry x="170" y="40" width="120" height="320" as="geometry"/>
                </mxCell>
            </root>
        </mxGraphModel>
    </diagram>
</mxfile>